Coordinates
version=1
nRows=5
nColumns=40
inDegrees=yes

Units are S.I. units (second, meters, Newtons, ...)
Angles are in degrees.

endheader
time	pelvis_tilt	pelvis_list	pelvis_rotation	pelvis_tx	pelvis_ty	pelvis_tz	hip_flexion_r	hip_adduction_r	hip_rotation_r	knee_angle_r	knee_angle_r_beta	ankle_angle_r	subtalar_angle_r	mtp_angle_r	hip_flexion_l	hip_adduction_l	hip_rotation_l	knee_angle_l	knee_angle_l_beta	ankle_angle_l	subtalar_angle_l	mtp_angle_l	lumbar_extension	lumbar_bending	lumbar_rotation	arm_flex_r	arm_add_r	arm_rot_r	elbow_flex_r	pro_sup_r	wrist_flex_r	wrist_dev_r	arm_flex_l	arm_add_l	arm_rot_l	elbow_flex_l	pro_sup_l	wrist_flex_l	wrist_dev_l
      2.53000000	     -4.81642366	     -0.27779056	      0.87559091	      0.65344650	      0.88481834	      1.44658640	      4.43025840	     -2.74764189	     -7.86837242	    -41.88048138	     -0.73095229	     -1.45052589	     -5.91146196	      0.27195063	     28.84941964	      1.59304739	     10.72030346	    -31.05787267	     -0.54206214	      4.35042459	     14.05881421	      2.34238904	      0.58044335	     -1.65740362	      0.29344267	      1.50224934	     -8.93198819	    -12.77047236	     31.32427417	     89.95437384	      0.00000000	      0.00000000	     -3.91154409	      8.13209474	     19.97380069	     27.17769958	     89.95437384	      0.00000000	      0.00000000
      2.54000000	     -4.76669379	     -0.22118932	      0.93092269	      0.65931563	      0.88543404	      1.44457688	      5.44263829	     -3.01330415	     -7.65076235	    -43.89124719	     -0.76604678	     -3.44761700	     -6.48939376	      0.91265378	     28.30343889	      1.42011366	     10.94856040	    -30.98510617	     -0.54079212	      4.72919753	     13.77334782	      2.43149235	      0.46542189	     -1.77296641	      0.20708870	      1.41031396	     -8.91765150	    -12.82774915	     30.88856591	     89.95437384	      0.00000000	      0.00000000	     -3.72433527	      8.23179827	     19.53712513	     27.73184530	     89.95437384	      0.00000000	      0.00000000
      2.55000000	     -4.63877455	     -0.23149344	      1.00991685	      0.66518568	      0.88609416	      1.44268664	      6.41878031	     -3.20264220	     -7.48182620	    -45.90306675	     -0.80115965	     -5.10521333	     -7.02125935	      1.43794464	     27.69057365	      1.32583046	     11.12596415	    -30.94852667	     -0.54015369	      5.14526680	     13.46705452	      2.45510815	      0.25813875	     -1.81567566	      0.06100192	      1.35238499	     -8.89297211	    -12.89259642	     30.45945051	     89.95437384	      0.00000000	      0.00000000	     -3.52437822	      8.34668287	     19.10562301	     28.28783897	     89.95437384	      0.00000000	      0.00000000
      2.56000000	     -4.54161593	     -0.12844009	      1.07986800	      0.67091230	      0.88661024	      1.44080311	      7.46200961	     -3.43011403	     -7.16661332	    -47.92500138	     -0.83644907	     -5.94558145	     -8.06749913	      1.93379583	     27.10619646	      1.09919137	     11.30740176	    -30.89188856	     -0.53916517	      5.63919931	     13.17110209	      2.46102563	      0.07101160	     -1.98258562	     -0.10349955	      1.32801051	     -8.82727330	    -13.02235534	     30.00963798	     89.95437384	      0.00000000	      0.00000000	     -3.30634057	      8.51986360	     18.60646325	     28.77506197	     89.95437384	      0.00000000	      0.00000000
      2.57000000	     -4.51298711	     -0.17346777	      1.22566607	      0.67625556	      0.88694133	      1.43907584	      8.72018708	     -3.49346213	     -7.09266484	    -50.13768717	     -0.87506772	     -4.77669614	     -8.60365971	     11.83691602	     26.73709544	      0.99455244	     11.25106786	    -31.01493430	     -0.54131272	      6.10157967	     12.86360787	      4.73881031	     -0.08592806	     -1.99775718	     -0.30440551	      1.23390887	     -8.73797058	    -13.26534811	     29.74177518	     89.95437384	      0.00000000	      0.00000000	     -3.05191483	      8.74502618	     17.90453396	     29.33998046	     89.95437384	      0.00000000	      0.00000000
